<svg xmlns="http://www.w3.org/2000/svg" viewBox="0 0 66.32 57.71"><defs><style>.cls-1{fill:#4cdaf2;}.cls-2{fill:#245377;}</style></defs><title>Aspas cima - Sobre nós</title><g id="Camada_2" data-name="Camada 2"><g id="nós_e_team" data-name="nós e team"><path class="cls-1" d="M63.12,30.31H53.87A2.27,2.27,0,0,1,51.6,28c0-13.88,6.26-18.5,12.27-19.74V0h0C57.2.79,52.25,3.26,48.79,7.52c-3.89,4.79-5.87,12-5.87,21.39V48.06a3.2,3.2,0,0,0,3.2,3.19h17a3.19,3.19,0,0,0,3.2-3.19V33.51A3.2,3.2,0,0,0,63.12,30.31Z"/><path class="cls-2" d="M57.35,57.71h-14A6.38,6.38,0,0,1,37,51.34v-1a1.88,1.88,0,0,1,3.75,0v1A2.63,2.63,0,0,0,43.37,54h14A2.63,2.63,0,0,0,60,51.34v-12a2.62,2.62,0,0,0-2.63-2.62H49.74a1.88,1.88,0,0,1-1.87-1.88c0-11.4,5.15-15.2,10.09-16.22V11.82c-5.49.65-9.56,2.68-12.4,6.18-3.2,3.94-4.82,9.86-4.82,17.59v.65a1.88,1.88,0,0,1-3.75,0v-.65c0-8.61,1.91-15.32,5.66-20s9.57-7.31,17.07-7.73a1.9,1.9,0,0,1,1.4.51,1.88,1.88,0,0,1,.58,1.36V20.26A1.88,1.88,0,0,1,60,22.13c-3.38.31-7.81,1.8-8.33,10.87h5.68a6.38,6.38,0,0,1,6.37,6.37v12A6.38,6.38,0,0,1,57.35,57.71Z"/><path class="cls-2" d="M38.74,45.91a2.28,2.28,0,0,1-2.27-2.28v-.09a2.28,2.28,0,1,1,4.55,0v.09A2.28,2.28,0,0,1,38.74,45.91Z"/><path class="cls-1" d="M26.52,30.31H17.27A2.28,2.28,0,0,1,15,28C15,14.16,21.25,9.54,27.26,8.3V0h0C20.59.79,15.64,3.26,12.18,7.52c-3.89,4.79-5.86,12-5.86,21.39V48.06a3.19,3.19,0,0,0,3.19,3.19h17a3.19,3.19,0,0,0,3.19-3.19V33.51A3.2,3.2,0,0,0,26.52,30.31Z"/><path class="cls-2" d="M20.35,33H14.67c.53-9.07,5-10.56,8.34-10.87a1.88,1.88,0,0,0,1.7-1.87V9.78a1.85,1.85,0,0,0-.59-1.36,1.88,1.88,0,0,0-1.39-.51c-7.5.42-13.25,3-17.07,7.73S0,27,0,35.59V51.34a6.38,6.38,0,0,0,6.37,6.37h14a6.38,6.38,0,0,0,6.38-6.37v-12A6.38,6.38,0,0,0,20.35,33ZM23,51.34A2.63,2.63,0,0,1,20.35,54h-14a2.63,2.63,0,0,1-2.63-2.63V35.59c0-7.73,1.63-13.65,4.83-17.59,2.84-3.5,6.91-5.53,12.39-6.18h0v6.83c-4.94,1-10.08,4.82-10.08,16.22a1.87,1.87,0,0,0,1.87,1.88h7.6A2.62,2.62,0,0,1,23,39.37Z"/></g></g></svg>