<svg xmlns="http://www.w3.org/2000/svg" viewBox="0 0 66.32 57.71"><defs><style>.cls-1{fill:#4cdaf2;}.cls-2{fill:#245377;}</style></defs><title>Aspas baixo - Sobre nós</title><g id="Camada_2" data-name="Camada 2"><g id="nós_e_team" data-name="nós e team"><path class="cls-1" d="M3.2,27.4h9.25a2.27,2.27,0,0,1,2.27,2.27c0,13.88-6.26,18.5-12.27,19.74v8.3h0c6.68-.79,11.62-3.26,15.08-7.52,3.89-4.79,5.87-12,5.87-21.39V9.65a3.21,3.21,0,0,0-3.2-3.2H3.2A3.2,3.2,0,0,0,0,9.65V24.2A3.2,3.2,0,0,0,3.2,27.4Z"/><path class="cls-2" d="M9,0H23a6.38,6.38,0,0,1,6.37,6.37v1a1.88,1.88,0,0,1-3.75,0v-1A2.63,2.63,0,0,0,23,3.74H9A2.62,2.62,0,0,0,6.35,6.37v12A2.62,2.62,0,0,0,9,21h7.61a1.88,1.88,0,0,1,1.87,1.88c0,11.4-5.15,15.2-10.09,16.22v6.83c5.49-.65,9.56-2.68,12.4-6.18,3.2-3.94,4.82-9.86,4.82-17.59v-.65a1.88,1.88,0,0,1,3.75,0v.65c0,8.61-1.91,15.32-5.66,20S14.1,49.38,6.6,49.8a1.88,1.88,0,0,1-2-1.87V37.45a1.88,1.88,0,0,1,1.7-1.87c3.38-.31,7.81-1.8,8.34-10.87H9A6.38,6.38,0,0,1,2.6,18.34v-12A6.38,6.38,0,0,1,9,0Z"/><path class="cls-2" d="M27.58,11.8a2.27,2.27,0,0,1,2.27,2.28v.09a2.28,2.28,0,1,1-4.55,0v-.09A2.28,2.28,0,0,1,27.58,11.8Z"/><path class="cls-1" d="M39.8,27.4h9.25a2.28,2.28,0,0,1,2.28,2.27c0,13.88-6.26,18.5-12.27,19.74v8.3h0c6.67-.79,11.62-3.26,15.08-7.52C58,45.4,60,38.2,60,28.8V9.65a3.2,3.2,0,0,0-3.19-3.2h-17a3.2,3.2,0,0,0-3.19,3.2V24.2A3.2,3.2,0,0,0,39.8,27.4Z"/><path class="cls-2" d="M46,24.71h5.68c-.53,9.07-5,10.56-8.34,10.87a1.88,1.88,0,0,0-1.7,1.87V47.93a1.85,1.85,0,0,0,.59,1.36,1.88,1.88,0,0,0,1.39.51c7.5-.42,13.25-3,17.07-7.73s5.66-11.34,5.66-19.95V6.37A6.38,6.38,0,0,0,60,0H46a6.38,6.38,0,0,0-6.38,6.37v12A6.38,6.38,0,0,0,46,24.71ZM43.34,6.37A2.63,2.63,0,0,1,46,3.74H60a2.63,2.63,0,0,1,2.63,2.63V22.12c0,7.73-1.63,13.65-4.83,17.59-2.84,3.5-6.91,5.53-12.39,6.18h0V39.06c4.94-1,10.09-4.82,10.09-16.22A1.88,1.88,0,0,0,53.57,21H46a2.62,2.62,0,0,1-2.63-2.62Z"/></g></g></svg>