<svg xmlns="http://www.w3.org/2000/svg" viewBox="0 0 113.7 111.37"><defs><style>.cls-1{fill:none;}.cls-2{fill:#4cdaf2;stroke:#4cdaf2;stroke-miterlimit:10;stroke-width:3px;}.cls-3{fill:#245377;}</style></defs><title>Automação</title><g id="Camada_2" data-name="Camada 2"><g id="funcionalidades"><path class="cls-1" d="M92.51,100c2.44-.36,3.88,1,5.39,2.83l4.8-4.63A7,7,0,0,1,99.93,95a8.08,8.08,0,0,0-3.25.79C94.12,96.87,92.88,98.16,92.51,100Z"/><path class="cls-1" d="M68.4,63.93l-4.66,4.79c1.85,1.35,3,2.66,3,4.69,1.54-.51,2.72-1.75,3.73-4.09a8.68,8.68,0,0,0,.74-2.87A7.62,7.62,0,0,1,68.4,63.93Z"/><path class="cls-1" d="M43.56,86.14c0-2,0-3.9,0-5.83.05-1.51-.55-2.28-2.09-2.79a69.63,69.63,0,0,1-7.94-3.31,2.46,2.46,0,0,0-3.28.55c-1.18,1.26-2.39,2.49-3.57,3.71a2.52,2.52,0,0,1-3.57,0L16.69,72a2.41,2.41,0,0,1-.61-1c-1.67,1.47-3.3,3-4.85,4.34l2,2,.82-.66-.82.66,5.15,5.19L19,82l-.62.54,2.91,2.92c1.74-1.8,3.57-3.64,5.34-5.53a2.45,2.45,0,0,1,3.26-.55c2.67,1.26,5.4,2.37,8.17,3.39A2.46,2.46,0,0,1,40,85.48c-.07,2.56,0,5.13,0,7.78h9.48a34.15,34.15,0,0,1-1.06-5.17H45.51A2,2,0,0,1,43.56,86.14Z"/><path class="cls-1" d="M85.5,101.83a5.91,5.91,0,0,0-.9-3.68,12.37,12.37,0,0,1-1.73.1A14.74,14.74,0,0,1,75.16,96,9.34,9.34,0,0,0,74,97.08a1.4,1.4,0,0,1-2.07,0L69,93.93A1.4,1.4,0,0,1,69,92c.37-.35.8-.66,1.2-1a14.61,14.61,0,0,1-2.12-7.5,13.71,13.71,0,0,1,.18-2.13c-1-.64-2.62-.7-4.18-.9a1.39,1.39,0,0,1-1-.67,6.6,6.6,0,0,1-4.1.31v6.21c2,.4,4.22.24,5.38,1.28,1.31,1.17,1.59,3.46,2.4,5.22,1.43,3.12-2.28,3.55-2.82,5.46L68.34,103c2.07-2.66,3.83-4,7.64-2.37s4.26,3.77,3.86,7h6.68a6.37,6.37,0,0,1,.38-4.34h0A1.41,1.41,0,0,1,85.5,101.83Z"/><path class="cls-1" d="M84.18,43.3c-3.14.27-6.23,1-9.61,1.59-.46-9.6-4.7-17.2-13.51-21.81a23.43,23.43,0,0,0-17.25-1.83A24.49,24.49,0,0,0,28.46,33.63,24.08,24.08,0,0,1,40.2,26.42a23.43,23.43,0,0,1,17.25,1.83c8.81,4.61,13,12.2,13.51,21.81,3.38-.58,6.47-1.33,9.61-1.59s6.29-.06,9.56-.06V43.19A56,56,0,0,0,84.18,43.3Z"/><path class="cls-1" d="M20.79,61.2a39.73,39.73,0,0,1-3-7.24c-.54-1.67-1.38-2.36-3-2.31s-3.34,0-5.09,0a2.54,2.54,0,0,1-2.52-2.53v-6.1c-1.2,0-2.4,0-3.61,0V56.83c2.7,0,5.15.05,7.61,0a2.72,2.72,0,0,1,3,2.17,70.15,70.15,0,0,0,3.21,7.77,4.59,4.59,0,0,1,.3.82c.88-.78,1.75-1.57,2.65-2.35C21.65,64.07,21.74,62.92,20.79,61.2Z"/><path class="cls-1" d="M107.38,86.66V85.39a12,12,0,0,0-.36,1.24Z"/><path class="cls-1" d="M43.6,9.2c0-.84,0-1.69,0-2.53H40c0,2.05,0,4,0,6q.72-.27,1.44-.51C42.91,11.61,43.67,10.88,43.6,9.2Z"/><path class="cls-1" d="M79.65,27l2.44-2.49-.77-.78-.57.54A2.75,2.75,0,0,0,79.65,27Z"/><path class="cls-1" d="M18,35.27a36.48,36.48,0,0,1,2.86-6.94A3,3,0,0,0,20,24c-1.1-.92-2.15-1.89-3.15-2.84a2.34,2.34,0,0,1-.7-1.22l-4.7,4.72c1.53,1.41,3.18,3,4.94,4.51,1.59,1.34,1.8,2.61.75,4.5a29.71,29.71,0,0,0-1.93,4.26C16.64,37.78,17.47,37,18,35.27Z"/><path class="cls-2" d="M57.24,5.71c-.06,2.23,0,4.48,0,6.71a1.71,1.71,0,0,0,1.39,2c1.78.55,3.44,1.5,5.22,2.08A2.64,2.64,0,0,0,66,16.18l1.09-1-.21-.1a38.05,38.05,0,0,0-7-2.87c-1.77-.56-2.62-1.34-2.52-3.24s.06-3.7,0-5.55A1.94,1.94,0,0,0,55.46,1.5h-10a1.92,1.92,0,0,0-1.89,1.56c3.68,0,7.36,0,11,0C56.47,3.06,57.29,3.87,57.24,5.71Z"/><path class="cls-2" d="M84.13,20.94l.34-.35a1.79,1.79,0,0,0,0-2.51l-7.3-7.38a1.79,1.79,0,0,0-2.56,0l-.35.37.16.14Q79.23,16.11,84.13,20.94Z"/><path class="cls-2" d="M32,15.7a3,3,0,0,1-2.16-1.24c-1-1.16-2-2.28-3-3.34a2.37,2.37,0,0,0-3.42,0l-.41.41c1.82,1.91,3.66,3.8,5.43,5.63Z"/><path class="cls-2" d="M9.09,39.68c1.25,0,2-.24,2.31-1.61a1.21,1.21,0,0,0,0-.18H9.68a2.5,2.5,0,0,0-2.36,1.75Q8.21,39.65,9.09,39.68Z"/><path class="cls-2" d="M26.47,55.85c2.49,8.44,8.4,13.47,17.17,14.76a29.92,29.92,0,0,0,6.88-.12,4.89,4.89,0,0,1,1.92.11c.09-.48.18-1,.28-1.44C37.07,70,27.12,59.1,25.8,47.3c0-.36-.05-.72-.07-1.08A21.56,21.56,0,0,0,26.47,55.85Z"/><path class="cls-2" d="M82.43,43.07A2.55,2.55,0,0,1,79.63,41a55.69,55.69,0,0,0-3.13-7.58c-.84-1.65-.7-2.75.64-4,.87-.8,1.71-1.64,2.51-2.44a2.75,2.75,0,0,1,1.1-2.73l.57-.54-9.06-9.16c-1.51,1.6-3.21,3.27-4.77,5.07-1.25,1.44-2.41,1.6-4.14.69a44,44,0,0,0-7.17-3c-1.71-.55-2.53-1.34-2.43-3.21.12-2.49,0-5,0-7.47H43.56c0,.84,0,1.69,0,2.53.07,1.68-.69,2.41-2.21,2.93q-.72.24-1.44.51c0,.57,0,1.15,0,1.72.07,1.69-.69,2.41-2.21,2.93a55.11,55.11,0,0,0-7.37,3c-1.74.9-2.9.76-4.14-.69C24.7,17.78,23,16,21.57,14.49l-5.44,5.45a2.34,2.34,0,0,0,.7,1.22c1,.95,2.05,1.92,3.15,2.84a3,3,0,0,1,.84,4.33A36.48,36.48,0,0,0,18,35.27c-.49,1.72-1.32,2.51-2.77,2.66-.31.84-.6,1.68-.84,2.53-.59,2.06-1.66,2.78-3.73,2.66-1.14-.07-2.29-.08-3.44-.07v6.1A2.54,2.54,0,0,0,9.7,51.68c1.75,0,3.42,0,5.09,0s2.5.64,3,2.31a39.73,39.73,0,0,0,3,7.24c.95,1.72.86,2.87-.46,4-.9.78-1.77,1.57-2.65,2.35a2.49,2.49,0,0,1-1,2.81l-.64.57a2.41,2.41,0,0,0,.61,1l6.44,6.49a2.52,2.52,0,0,0,3.57,0c1.18-1.22,2.39-2.45,3.57-3.71a2.46,2.46,0,0,1,3.28-.55,69.63,69.63,0,0,0,7.94,3.31c1.54.51,2.14,1.28,2.09,2.79,0,1.93,0,3.86,0,5.83a2,2,0,0,0,1.95,2h2.86a40.14,40.14,0,0,1,.74-13.76c-15.65.85-25.6-10.07-26.92-21.86a24.25,24.25,0,0,1,6.27-18.84A24.49,24.49,0,0,1,43.81,21.25a23.43,23.43,0,0,1,17.25,1.83c8.81,4.61,13,12.21,13.51,21.81C78,44.31,81,43.57,84.18,43.3a56,56,0,0,1,5.95-.11v-.13C87.47,43.06,85,43,82.43,43.07Z"/><path class="cls-2" d="M51.81,87.61a2,2,0,0,0,.64-1.89A34.41,34.41,0,0,1,51.72,80,31.42,31.42,0,0,0,51.81,87.61Z"/><path class="cls-2" d="M80.12,32.59c.88,2.35,1.94,4.64,3,7.06,2.63,0,5.3.05,8,0,1.9-.06,2.69.73,2.66,2.59,0,0,0,0,0,0V38.94a1,1,0,0,0-1-1c-2.28,0-4.47,0-6.65,0-1.89,0-2.62-.92-3.12-3.31a15.4,15.4,0,0,0-1.63-4.36c-.19.2-.39.39-.57.6A2.16,2.16,0,0,0,80.12,32.59Z"/><path class="cls-3" d="M14.67,79.07h0l-.08,0a2.61,2.61,0,0,0-.48-.05,2.44,2.44,0,0,0-.48.05l-.08,0h0a2.39,2.39,0,0,0-1.83,2.32,2.6,2.6,0,0,0,.83,1.77,2.5,2.5,0,0,0,.92.5h0l.15,0a2.42,2.42,0,0,0,.47.05,2.63,2.63,0,0,0,.49-.05l.16,0h0a2.38,2.38,0,0,0-.08-4.59Z"/><circle class="cls-2" cx="50.62" cy="43.94" r="16.09"/><path class="cls-3" d="M62.84,43.42c-.52-1.3-.89-3.43-3-2.52s-.67,2.43-.2,3.73a13.91,13.91,0,0,1-.63,12,15.89,15.89,0,0,1-1.83,2.62,13.38,13.38,0,0,1-13.86,4.59c-6.08-1.38-9.74-5.38-10.94-11.5a13.77,13.77,0,0,1,2.32-10.57,13.94,13.94,0,0,1,3.86-3.67,13.62,13.62,0,0,1,14.33-.74,2,2,0,0,0,2.23-.59,1.74,1.74,0,0,0-.6-2.54A17.75,17.75,0,0,0,37.05,35c-.44.28-.89.58-1.31.9A17.69,17.69,0,1,0,64.08,51.33,17.38,17.38,0,0,0,62.84,43.42Z"/><path class="cls-3" d="M55.33,39.06a2.35,2.35,0,0,0,.68,1,2.53,2.53,0,0,0,.91.5h0l.15.06a2.42,2.42,0,0,0,.47,0,2.73,2.73,0,0,0,.5,0l.16-.05h0A2.37,2.37,0,0,0,58.15,36h0L58,36a2.44,2.44,0,0,0-.48-.05,2.61,2.61,0,0,0-.48.05L57,36h0a2.28,2.28,0,0,0-1.67,3.08Z"/><path class="cls-1" d="M86.31,107.47v.17h.21a6.37,6.37,0,0,1,.38-4.34,6.8,6.8,0,0,1,3.41-2.67,8.26,8.26,0,0,1,2.2-.66c2.44-.36,3.88,1,5.39,2.83l4.8-4.63A7,7,0,0,1,99.93,95a6.27,6.27,0,0,1,.47-4.43c1.48-3.73,3.67-4.14,6.62-3.89l.36,0V80c-3.51.77-5.34-.13-7-3.71-1.78-3.86-.1-5.64,2.22-7.73l-4.69-4.7c-1.92,2.93-3.88,3.81-7.66,2.34s-4.12-3.88-3.85-7H79.84c.3,3.21.12,5.48-3.72,7-2.12.85-3.66.89-5,.3a7.62,7.62,0,0,1-2.77-2.52l-4.66,4.79c1.85,1.35,3,2.66,3,4.69a7.76,7.76,0,0,1-.7,2.76,6.49,6.49,0,0,1-2.91,3.58,6.6,6.6,0,0,1-4.1.31v6.21c2,.4,4.22.24,5.38,1.28,1.31,1.17,1.59,3.46,2.4,5.22,1.43,3.12-2.28,3.55-2.82,5.46L68.34,103c2.07-2.66,3.83-4,7.64-2.37s4.26,3.77,3.86,7h.3v0h6.17Z"/><path class="cls-1" d="M86.9,73l.11-.16a11.09,11.09,0,0,0-3.9-.81A11.41,11.41,0,1,0,94.33,83.47a11.33,11.33,0,0,0-3.6-8.27l-.36.23.36-.23A11.57,11.57,0,0,0,87,72.81Z"/><path class="cls-2" d="M104.9,71.53c-1.53-3.33-.61-5.18,1.12-7a1.67,1.67,0,0,0,0-2.35l-2.34-2.34a1.67,1.67,0,0,0-2.42.06c-1.72,1.89-3.68,2.29-6.94,1s-4.1-3.21-4.11-5.67a1.67,1.67,0,0,0-1.67-1.67H85.18a1.67,1.67,0,0,0-1.67,1.7c0,2.48-.69,4.31-4,5.63s-5.2.79-7-1a1.67,1.67,0,0,0-2.4,0l-2.31,2.38a1.68,1.68,0,0,0,.07,2.4c1.75,1.63,2.4,3.46,1,6.69s-3.06,4.31-5.62,4.25a1.68,1.68,0,0,0-1.71,1.67v3.2a1.68,1.68,0,0,0,1.47,1.67c1.63.18,3.23.28,4.16,1.11,1.37,1.23,1.66,3.62,2.5,5.46,1.07,2.35-.63,3.24-1.87,4.29a1.69,1.69,0,0,0-.15,2.42l2.39,2.58a1.68,1.68,0,0,0,2.44,0c1.74-1.81,3.56-2.47,6.82-1.12s4.18,3.16,4.16,5.66a1.67,1.67,0,0,0,1.67,1.69h3.32a1.66,1.66,0,0,0,1.68-1.69c-.1-2.6,1-4.23,4.15-5.63,3.31-1.46,5.17-.67,6.84,1a1.67,1.67,0,0,0,2.36,0L106,95.75a1.68,1.68,0,0,0,0-2.42c-1.85-1.76-2.34-3.65-1-6.88s3.18-4.13,5.62-4.13a1.68,1.68,0,0,0,1.68-1.67V77.33a1.66,1.66,0,0,0-1.74-1.67C107.88,75.81,106.32,74.63,104.9,71.53Z"/><path class="cls-3" d="M83.71,107.43h0l-.06,0a1.84,1.84,0,0,0-.41,0,1.81,1.81,0,0,0-.4,0l-.07,0h0a2,2,0,0,0-1.53,2,2.16,2.16,0,0,0,.7,1.49,2.14,2.14,0,0,0,.77.42h0l.13,0a1.72,1.72,0,0,0,.39,0,1.87,1.87,0,0,0,.42,0l.13,0h0a2,2,0,0,0-.07-3.85Z"/><path class="cls-3" d="M82.86,91.54a8.13,8.13,0,1,0-8.08-8.17A8.09,8.09,0,0,0,82.86,91.54ZM83,78.71A4.69,4.69,0,0,1,83,88.09,4.69,4.69,0,1,1,83,78.71Z"/><path class="cls-3" d="M111,80.92c0-.77,0-1.55-.09-2.32s-1.12-1.44-1.89-1.83a3.91,3.91,0,0,0-2.13-.06c-1.65.22-2.51-.33-3.21-2s-.11-2.38.94-3.28c.49-.42.92-.91,1.38-1.37,1.39-1.38,1-2.78-1.19-4.13a15.6,15.6,0,0,1-4.59-4.67c-1.13-1.69-2.34-2-3.52-.84-.52.5-1,1-1.54,1.53-.84.83-1.44,1.81-3.06,1s-2.59-1.38-2.25-3.26a14.08,14.08,0,0,0,0-1.95,1.89,1.89,0,0,0-2.08-2.19l-2.8,0h-6.3c-1.52,0-2.22.85-2.22,2.33,0,.36,0,.72,0,1.07a5.14,5.14,0,0,0,0,.88c.31,1.77-.59,2.41-2.12,3.11s-2.23-.07-3.08-1c-.4-.42-.83-.8-1.22-1.23a3.64,3.64,0,0,0-.87-.72c-.94-.52-1.84-.22-2.8.79-1.58,1.68-3.25,3.28-4.88,4.92-2.66,2.65-2.76,2.91.06,5.43,1.49,1.34,1.86,2.52.79,4.18a9,9,0,0,0-.61,1.33c-1.16,0-2.16,0-3.17,0-2.87,0-3.15.26-3.16,3,0,2.24,0,4.48,0,6.72,0,3.57.07,3.76,3.65,3.6,2-.09,3.28.4,3.73,2.45a11,11,0,0,0,.55,1.43c-1,.94-1.87,1.79-2.78,2.61C59,98,59.21,99.35,61.65,101a13.94,13.94,0,0,1,4,4c1.52,2.33,2.9,2.68,4.31,1.19.45-.47,1-.89,1.38-1.38.85-1,1.61-1.56,3.11-.86,3,1.43,2,5,2.06,5.09.34,2.2,3.68,1.75,3.58-.47,0-.51.7-5.72-4.09-7.91-3.81-1.59-5.57-.29-7.64,2.37L64,98.23c.54-1.91,4.25-2.34,2.82-5.46-.81-1.76-1.09-4-2.4-5.22S61,86.67,59,86.27V80.06a6.6,6.6,0,0,0,4.1-.31A6.49,6.49,0,0,0,66,76.17a7.76,7.76,0,0,0,.7-2.76c.08-2-1.11-3.34-3-4.69l4.66-4.79a7.62,7.62,0,0,0,2.77,2.52c1.29.59,2.83.55,5-.3,3.84-1.53,4-3.8,3.72-7h6.58c-.27,3.14-.06,5.5,3.85,7s5.74.59,7.66-2.34l4.69,4.7c-2.32,2.09-4,3.87-2.22,7.73,1.64,3.58,3.47,4.48,7,3.71v6.7l-.36,0c-3-.25-5.14.16-6.62,3.89A6.27,6.27,0,0,0,99.93,95a7,7,0,0,0,2.77,3.22l-4.8,4.63c-1.51-1.86-3-3.19-5.39-2.83a8.26,8.26,0,0,0-2.2.66,6.8,6.8,0,0,0-3.41,2.67,6.07,6.07,0,0,0-.59,4.26,15.33,15.33,0,0,1,0,1.56,2,2,0,0,0,2.5,1.94c1.06-.35,1.07-1.29,1-3.87A3,3,0,0,1,92,103.86c1.72-.75,2.36.17,3.26,1.06.41.4.83.8,1.22,1.22,1.11,1.22,2.2,1.17,3.34,0,1.62-1.65,3.26-3.27,4.89-4.91,2.32-2.31,2.78-2.79,1.42-4.35-.35-.4-.81-.87-1.41-1.46-.9-.9-1.77-1.56-1.07-3.25s1.61-2.33,3.34-2.09l.34,0c.53,0,1.08,0,1.61,0a1.83,1.83,0,0,0,2.07-2C111,85.73,111.05,83.32,111,80.92Z"/><path class="cls-3" d="M92.39,74.1h0A1.72,1.72,0,0,0,92,76.58a11.16,11.16,0,0,1,2.36,6.89A11.39,11.39,0,1,1,83.11,72a10.79,10.79,0,0,1,2.73.41,1.74,1.74,0,0,0,1.91-.69h0a1.73,1.73,0,0,0-1-2.63A14.39,14.39,0,0,0,83,68.55,15,15,0,0,0,68.28,81.32a13.71,13.71,0,0,0-.18,2.13A14.61,14.61,0,0,0,70.22,91a15.32,15.32,0,0,0,4.94,5,14.74,14.74,0,0,0,7.71,2.27,12.37,12.37,0,0,0,1.73-.1A14.8,14.8,0,0,0,94.71,74.47,1.72,1.72,0,0,0,92.39,74.1Z"/><path class="cls-3" d="M90.47,70.82h0l-.06,0a1.84,1.84,0,0,0-.41,0,1.81,1.81,0,0,0-.4,0l-.07,0h0a2,2,0,0,0-1.53,2,2.16,2.16,0,0,0,.7,1.49,2.14,2.14,0,0,0,.77.42h0l.13,0a1.72,1.72,0,0,0,.39,0,1.87,1.87,0,0,0,.42,0l.13,0h0a2,2,0,0,0-.07-3.85Z"/><path class="cls-3" d="M93.73,42.35v-.13c0-1.86-.76-2.65-2.66-2.59-2.67.07-5.34,0-8,0-1-2.42-2.1-4.71-3-7.06a2.16,2.16,0,0,1,.6-1.75c.18-.21.38-.4.57-.6,1.4-1.48,2.84-2.91,4.31-4.33,1.24-1.2,1.24-2.28,0-3.51-.5-.48-1-1-1.47-1.46q-4.89-4.85-9.72-9.72l-.16-.14c-1.19-1.11-2.23-.92-3.35.23-1.27,1.31-2.53,2.63-3.85,3.87l-1.09,1a2.64,2.64,0,0,1-2.15.34C62,15.94,60.37,15,58.59,14.44a1.71,1.71,0,0,1-1.39-2c.07-2.23,0-4.48,0-6.71,0-1.84-.77-2.65-2.58-2.65-3.69,0-7.37,0-11,0H39.05c-1.85,0-2.58.92-2.55,2.7,0,2.31.08,4.63,0,6.93a2.15,2.15,0,0,1-1,1.56c-1.12.51-2.26,1-3.44,1.45l-3.58,1.41c-1.77-1.83-3.61-3.72-5.43-5.63l-.21-.21c-1.18-1.25-2.28-1.26-3.51,0Q13.75,16.88,8.13,22.44C7,23.58,6.94,24.67,8.08,25.81s2.16,2.13,3.23,3.21C14,31.7,14,31.7,12.48,35.25a17,17,0,0,0-1,2.64,1.21,1.21,0,0,1,0,.18c-.28,1.37-1.06,1.65-2.31,1.61q-.88,0-1.77,0c-1.58,0-3.16,0-4.73,0C.77,39.61,0,40.38,0,42.24c.07,4,0,7.94,0,11.9a6.16,6.16,0,0,0,6.14,6.12c4.54,0,4.41,0,6.21,4.26.37.88.85,1.71,1.26,2.56a1.61,1.61,0,0,1-.56,2.1c-1.64,1.52-3.15,3.18-4.77,4.73-1.3,1.24-1.42,2.37-.09,3.68l.94.94a1.88,1.88,0,0,0,2.66-2.65l-.58-.59c1.55-1.39,3.18-2.87,4.85-4.34l.64-.57a2.49,2.49,0,0,0,1-2.81,5.36,5.36,0,0,0-.95-1.86,10.9,10.9,0,0,1-2.07-4.66c-.53-3.08-1.29-4.3-3.48-4.24-2.46.07-4.91,0-7.61,0V43.09c1.21,0,2.41,0,3.61,0s2.3,0,3.44.07c2.07.12,3.14-.6,3.73-2.66.24-.85.53-1.69.84-2.53a29.71,29.71,0,0,1,1.93-4.26c1.05-1.89.84-3.16-.75-4.5-1.76-1.48-3.41-3.1-4.94-4.51l4.7-4.72,5.44-5.45C23,16,24.7,17.78,26.27,19.63c1.24,1.45,2.4,1.59,4.14.69a55.11,55.11,0,0,1,7.37-3c1.52-.52,2.28-1.24,2.21-2.93,0-.57,0-1.15,0-1.72,0-2,0-3.92,0-6H53.78c0,2.48.09,5,0,7.47-.1,1.87.72,2.66,2.43,3.21a44,44,0,0,1,7.17,3c1.73.91,2.89.75,4.14-.69,1.56-1.8,3.26-3.47,4.77-5.07l9.06,9.16.77.78L79.65,27c-.8.8-1.64,1.64-2.51,2.44-1.34,1.23-1.48,2.33-.64,4A55.69,55.69,0,0,1,79.63,41a2.55,2.55,0,0,0,2.8,2.08c2.52,0,5,0,7.7,0v5.35c-3.27,0-6.44-.21-9.56.06s-6.23,1-9.61,1.59c-.46-9.61-4.7-17.2-13.51-21.81A23.43,23.43,0,0,0,40.2,26.42a24.62,24.62,0,0,0-18,26.05c1.32,11.79,11.27,22.71,26.92,21.86a40.14,40.14,0,0,0-.74,13.76,34.15,34.15,0,0,0,1.06,5.17H40c0-2.65-.05-5.22,0-7.78a2.49,2.49,0,0,0-2-2.76c-2.8-1-5.49-2.21-8.19-3.41a2.43,2.43,0,0,0-3.14.61c-1.77,1.89-3.6,3.73-5.34,5.53l-1.67-1.68A1.86,1.86,0,1,0,17,86.4c.76.75,1.51,1.5,2.26,2.27a2.49,2.49,0,0,0,3.63-.06c1.86-2,3.77-4,5.51-5.81,2.58,1,4.81,1.85,7,2.85a2.3,2.3,0,0,1,1.1,1.68c.13,2.23.1,4.48,0,6.72-.06,1.89.66,2.82,2.64,2.79,4,0,7.95,0,11.92,0,2.23,0,2.88-.91,2.16-3.06a33.14,33.14,0,0,1-1.4-6.14A31.42,31.42,0,0,1,51.72,80a35,35,0,0,1,1.4-6.65c.49-1.59.28-2.42-.68-2.73a4.89,4.89,0,0,0-1.92-.11,29.92,29.92,0,0,1-6.88.12C34.87,69.32,29,64.29,26.47,55.85a21.56,21.56,0,0,1-.74-9.63A20,20,0,0,1,33.07,34a20.63,20.63,0,0,1,10.52-4.9,21.25,21.25,0,0,1,11.77,2,19.79,19.79,0,0,1,10.91,12.3,23.57,23.57,0,0,1,1,8.27c-.16,3,.67,3.8,3,2.78a32.2,32.2,0,0,1,15.26-2.61,34.43,34.43,0,0,1,5.49.88,2.93,2.93,0,0,0,1.33.06c.86-.19,1.31-.91,1.31-2.18C93.7,47.84,93.64,45.09,93.73,42.35Z"/></g></g></svg>