<svg xmlns="http://www.w3.org/2000/svg" viewBox="0 0 113.5 109.24"><defs><style>.cls-1{fill:#4cdaf2;}.cls-2,.cls-3{fill:none;stroke:#245377;stroke-linecap:round;stroke-linejoin:round;}.cls-2{stroke-width:3px;}.cls-4{fill:#245377;}</style></defs><title>Check-in</title><g id="Camada_2" data-name="Camada 2"><g id="funcionalidades"><path class="cls-1" d="M113.43,29c-.27-2.35-2.13-4.67-4.4-4.88-2.67-.24-5.38-.05-8.24-.05l-2.06,0-2.4-.18v-19a11,11,0,0,0,2.91-1.41,2.13,2.13,0,0,0,.22-2.09A3.61,3.61,0,0,0,97.07.06C88.54,0,80,0,71.47,0a4.24,4.24,0,0,0-.62,0c-1.28.15-2.2.75-2.22,2.15s.86,2,2.15,2.22c.4.06.8.06,1.23.09V23.88l-2.52.19h0c-.21,0-2.75-.12-3.14-.11-2.13.05-4.27,0-6.4.08a5.22,5.22,0,0,0-4,2.28c.07.11.09.17.13.19.35.22.7.44,1.06.65,5,2.84,8.55,6.91,10,12.43A45.75,45.75,0,0,1,68.68,50.5c.18,13.48.08,27,.06,40.46,0,.85.43,2.21-1,2.22s-1.09-1.38-1.09-2.29q0-16.17,0-32.34V56.91c-.29.05-.36.05-.37.08-.25.39-.49.79-.73,1.2A21.85,21.85,0,0,1,56,67.29a2.08,2.08,0,0,0-1.34,2.27c0,7.13,0,14.27,0,21.4,0,4.29,1.73,6.32,6,6.91.84.11,1,.49,1,1.21,0,1.15,0,2.3.06,3.44a2,2,0,0,0,2,2,2.1,2.1,0,0,0,2.37-2,14.66,14.66,0,0,0,0-2.81c-.12-1.38.29-1.88,1.8-1.87,10.83.06,21.66,0,32.49,0,.55,0,1.11,0,1.76.08,0,1.47,0,2.77,0,4.06,0,1.56.92,2.54,2.19,2.5a2.24,2.24,0,0,0,2.21-2.49c0-1.3,0-2.6,0-4,.46-.06.71-.1,1-.12,4-.37,6-2.54,6-6.55q0-30.46,0-60.93A10.85,10.85,0,0,0,113.43,29ZM76.68,4.46H91.59c0,.49.12.94.12,1.39,0,5.51,0,11,0,16.53,0,1.18-.29,1.64-1.57,1.61-4.45-.07-8.91,0-13.49,0Zm3.06,87.4a16.24,16.24,0,0,1-.95,1.39c-.36-.47-1-.93-1.05-1.41-.09-3.64,0-7.28,0-10.92v-9q0-9.45,0-18.88a5.32,5.32,0,0,1,.15-1.7,1.19,1.19,0,0,1,.9-.63,1.26,1.26,0,0,1,.88.65,3.52,3.52,0,0,1,.14,1.38V91.08C79.76,91.34,79.85,91.65,79.74,91.86Zm10.88-20q0,9.61,0,19.21a4,4,0,0,1-.09,1.39,1,1,0,0,1-1.81.1,2.53,2.53,0,0,1-.19-1.21V52.5a2.19,2.19,0,0,1,.11-1.07c.21-.34.7-.82,1-.76a1.69,1.69,0,0,1,1,.94A3.76,3.76,0,0,1,90.62,53Zm10.85,20.22a5.77,5.77,0,0,1-1,1.15,9.38,9.38,0,0,1-1-1.17c-.14-.23,0-.61,0-.93V52.73c0-.36-.12-.81,0-1.07a5.84,5.84,0,0,1,1.11-1,4.84,4.84,0,0,1,.92,1.07,3.35,3.35,0,0,1,0,1.23v38A3.14,3.14,0,0,1,101.47,92.11Z"/><path class="cls-1" d="M55,29.06c-8.52-5.33-20.13-3.1-26.87,5C22.68,40.63,20.43,54.45,32,63.73c-1.21,2.05-2.39,4.13-3.65,6.15a1.79,1.79,0,0,1-1.2.74A5.29,5.29,0,0,0,23,73.46Q16.46,84.5,10,95.54a4.89,4.89,0,0,0,1.71,7,4.85,4.85,0,0,0,7.09-1.88c4.39-7.44,8.73-14.91,13.08-22.37a4.86,4.86,0,0,0,.3-4.77,1.63,1.63,0,0,1,0-1.26c1.2-2.12,2.47-4.2,3.76-6.38,12.84,5,23.8-2.14,27.57-10.79C67.61,45.67,64.11,34.77,55,29.06ZM37.69,53.13c-.64-3.28-1.24-6.38-1.84-9.48l.25-.12,3.25,4.72c4.86-2.38,9.74-4.09,15.16-3.46A63.62,63.62,0,0,0,37.69,53.13Z"/><path class="cls-2" d="M62.85,53.69a45.75,45.75,0,0,0-1.56-10.91c-1.46-5.52-5-9.59-10-12.43-.36-.21-.71-.43-1.06-.65,0,0-.06-.08-.13-.19a5.22,5.22,0,0,1,4-2.28c2.13-.11,11.27-.1,12.06-.16V7.68c-.43,0-.83,0-1.23-.09-1.29-.18-2.16-.84-2.14-2.22s.93-2,2.21-2.16c.21,0,.42,0,.62,0,8.54,0,17.07,0,25.6,0a3.61,3.61,0,0,1,2.39,1.3,2.11,2.11,0,0,1-.21,2.09A10.89,10.89,0,0,1,90.5,8.05v19c.76.06,10.08,0,12.7.26,2.27.21,4.13,2.53,4.4,4.88a10.85,10.85,0,0,1,.07,1.4q0,30.47,0,60.93c0,4-2,6.17-6,6.55-.25,0-.5.06-1,.12,0,1.44,0,2.74,0,4a2.24,2.24,0,0,1-2.21,2.49c-1.27,0-2.15-.94-2.19-2.5,0-1.29,0-2.59,0-4.06-.65,0-1.2-.08-1.75-.08-10.84,0-21.67,0-32.5,0-1.5,0-1.91.49-1.79,1.87a14.67,14.67,0,0,1-.06,2.81,2.1,2.1,0,0,1-2.37,2,2,2,0,0,1-2-2c-.1-1.14-.07-2.29-.06-3.44,0-.72-.16-1.1-1-1.21-4.23-.59-6-2.62-6-6.91,0-7.13,0-14.27,0-21.4a2.11,2.11,0,0,1,1.34-2.27,21.87,21.87,0,0,0,9.6-9.1q.34-.62.72-1.2"/><path class="cls-2" d="M74.79,94.27q0-19.18,0-38.39"/><path class="cls-2" d="M65.72,94.27q0-19.18,0-38.39"/><path class="cls-2" d="M83.86,94.27V55.88"/><path class="cls-2" d="M93.78,94.27q0-19.18,0-38.39"/><path class="cls-2" d="M28.22,69.11c-1.29,2.18-2.56,4.26-3.75,6.38a1.58,1.58,0,0,0,0,1.26,4.86,4.86,0,0,1-.31,4.77C19.85,89,15.52,96.45,11.13,103.89A4.86,4.86,0,0,1,4,105.77a4.89,4.89,0,0,1-1.71-7C6.61,91.36,11,84,15.27,76.65a5.29,5.29,0,0,1,4.22-2.84,1.79,1.79,0,0,0,1.2-.74c1.26-2,2.45-4.1,3.65-6.15C12.75,57.64,15,43.82,20.42,37.27c6.73-8.12,18.34-10.35,26.87-5C56.42,38,59.92,48.86,55.8,58.32,52,67,41.06,74.1,28.22,69.11Zm8.46-4.62A14.4,14.4,0,1,0,22.24,50,14.42,14.42,0,0,0,36.68,64.49Z"/><path class="cls-2" d="M70.86,7.65v19.5c4.57,0,9,0,13.49,0,1.28,0,1.57-.43,1.56-1.61,0-5.51,0-11,0-16.53,0-.45-.07-.9-.11-1.39Z"/><path class="cls-3" d="M31.9,50.93c4.86-2.38,9.74-4.09,15.16-3.46a63.62,63.62,0,0,0-16.82,8.34L28.4,46.33l.25-.12Z"/><path class="cls-4" d="M62.4,55.52h-.07a1.63,1.63,0,0,0-.31,0,1.66,1.66,0,0,0-.32,0h-.05A1.56,1.56,0,0,0,60.46,57a1.65,1.65,0,0,0,.1.5,1.57,1.57,0,0,0,.44.66,1.52,1.52,0,0,0,.6.32h0l.1,0a1.06,1.06,0,0,0,.31,0,1.12,1.12,0,0,0,.32,0,.29.29,0,0,0,.1,0h0a1.55,1.55,0,0,0-.06-3Z"/></g></g></svg>