<svg xmlns="http://www.w3.org/2000/svg" viewBox="0 0 112.44 111.51"><defs><style>.cls-1{fill:#4cdaf2;}.cls-2{fill:none;}.cls-3{fill:#245377;}</style></defs><title>Controle de Voos</title><g id="Camada_2" data-name="Camada 2"><g id="funcionalidades"><path class="cls-1" d="M112.35,87.07c-.69-6.42-6.25-11.53-12.89-12.21-.27-1.15-.94-3.9-1-4.17-3-11.14-4.78-19.18-7.83-30.3a4.82,4.82,0,0,1,1.53-5.47c4.76-4.39,9.37-8.94,14-13.45.77-.75,1.38-1.66,2.09-2.44,1.56-1.73,2.85-6.22.64-9-1.53-1.89-5.11-2.82-7.35-2.28a10.23,10.23,0,0,0-4.29,2.3c-4.1,3.74-8,7.69-12,11.5-5.48,5.18-3.39,4.84-11.12,3q-5.78-1.39-11.55-2.83c.2-5.47-5.42-10.13-9.86-9.93A3,3,0,0,1,49.3,9.69a7.61,7.61,0,0,0-10-3.45C36.48,7.51,36.48,7.51,35,5A10.24,10.24,0,0,0,22.76.58a9.57,9.57,0,0,0-6.49,11c.43,2-.27,2.61-2.29,2.75C9.31,14.62,3.5,20.44,3.37,24.8s3.25,8.56,7.46,8.67c10.08.25,27.39.13,39.3.1l11.14,7.14c2.44,1.56,2.49,1.95.4,4-4,3.86-6,5.18-9.79,9.19-2.39,2.53-4.8,3.95-8.4,2.81-1.23-.38-2.67-.17-3.89-.58-3.07-1-4.79.48-6.36,2.84L47,66.38a14.51,14.51,0,0,0-1.12,8.68c.48,2.81.4,2.9-2.66,3.12a12.82,12.82,0,0,0-11.41,8.59c-2.78,8.3,3.5,16.31,13,16.39,8.72.08,17.44,0,26.16,0h0q12.52,0,25.06,0a28.9,28.9,0,0,0,3.72-.21A14.28,14.28,0,0,0,112.35,87.07Zm-35-19.5c-2.22,1.26-2.53,1.17-3.63-1a15,15,0,0,0-10.37-8.07c2.13-1.93,5.41-5.61,7.07-7.2,2.09-2,2.85-1.46,4.13.32,2.07,2.88,8.12,10.33,11.72,15.51C83.22,66,80.61,65.74,77.36,67.57Z"/><path class="cls-2" d="M68.24,63.37l7.19,7.45L80,69.31l-7-10.61Z"/><path class="cls-2" d="M34.09,25.75c-2.51-1.67-2.56-2.08-.49-4.17a41.1,41.1,0,0,0,3-3c1.21-1.49,2.54-1.69,4.34-1.2,7.15,2,14.34,3.77,21.53,5.63.49.13,1,.17,1.62.27-1.57-4.54-5.22-7.32-9.6-7.12-1.85.09-2.6-.52-3.33-2.14a7.29,7.29,0,0,0-9.79-3.49c-2.7,1.29-2.7,1.29-4.12-1.23a9.83,9.83,0,0,0-12-4.49A9.71,9.71,0,0,0,19,15.83c.42,2-.26,2.64-2.23,2.79a8.44,8.44,0,0,0-8,8.28c-.12,4.3,2.86,8.57,7,8.67,10.89.29,21.8.1,33.25.1-.92-.65-1.38-1-1.85-1.3Q40.62,30.05,34.09,25.75Z"/><path class="cls-2" d="M87.63,44a4.8,4.8,0,0,1,1.44-5.35c4.5-4.31,8.86-8.77,13.25-13.19a12.85,12.85,0,0,0,2-2.39,5,5,0,0,0-.16-5.68A4.69,4.69,0,0,0,99,15.1a9.49,9.49,0,0,0-4,2.25C91,21,87.36,24.88,83.56,28.62c-5.18,5.07-3.21,4.74-10.51,2.91-10.93-2.75-21.84-5.59-32.76-8.34a4.26,4.26,0,0,0-2.69,0,22.43,22.43,0,0,0-3.45,2.66c1.46,1,2.31,1.58,3.17,2.15l25.6,17c2.3,1.53,2.35,1.92.37,3.91C59.53,52.67,55.62,56.31,52,60.24c-2.25,2.48-4.53,3.87-7.94,2.76-1.16-.38-2.52-.18-3.67-.58-2.9-1-4.53.47-6,2.79l10.53,5.87a4.62,4.62,0,0,0,.6-.73c3.6-6.68,11.86-10,18.59-8a2.46,2.46,0,0,0,1.92-.65c1.74-1.58,3.36-3.3,5-5,2-2,2.4-1.94,3.9.32,2.46,3.68,4.85,7.41,7.38,11a4.75,4.75,0,0,0,2.38,1.67,13.31,13.31,0,0,1,8.54,6.75c.71,1.4,1.5,1.81,3,1.24-.07-.35-.12-.68-.21-1C93.25,65.79,90.5,54.86,87.63,44Z"/><path class="cls-3" d="M100,78.75a3.17,3.17,0,0,1-1.79-1.9c-3.09-11.17-6-22.37-9.12-33.54a2.53,2.53,0,0,1,.85-2.89q5.17-4.81,10.27-9.7a63,63,0,0,0,5.44-5.4c4-4.93,1.27-11.8-5.08-12.92-3.38-.6-6.13.7-8.48,2.94C87.35,19.8,82.62,24.23,78,28.73c-1.27,1.23-2.31,1.62-4.74.48a19.41,19.41,0,0,0-7.46-1.75c-2.48-.11-3.17-.71-3.64-2.22-1.64-5.2-6-8.44-11.67-8.92A3.34,3.34,0,0,1,48.37,15a10.1,10.1,0,0,0-7.64-4.67,36.87,36.87,0,0,0-6.33.53c-4.29-5.29-9.29-7.35-14.91-5.59-6.72,2.09-9.58,6.84-9.25,13.43A23.7,23.7,0,0,0,7,19.66,11,11,0,0,0,.18,31.77c1,5.4,5.84,9.05,12,9.08,11.54,0,23.09,0,34.63,0a5.18,5.18,0,0,1,2.5.46c3,1.79,6,3.71,9.29,5.8-3.56,3.34-7.12,6.26-10.1,9.63C45.66,60,42.63,61.46,38.35,60c-4.62-1.56-8,0-10.87,3.58a2.41,2.41,0,0,0,.85,3.71c3.5,1.86,7,3.69,10.49,5.59.56.3,1.31.94,1.3,1.4-.08,2.31-.37,4.62-.6,7-.26.07-.53.17-.81.23-8.57,1.67-14.15,8.34-13.36,16,.84,8.11,7.6,13.7,16.6,13.7h1.87a1.35,1.35,0,0,0,1.38-1.31v0a1.35,1.35,0,0,0-1.38-1.31H41.67c-9.43-.08-15.69-7.93-12.92-16A12.76,12.76,0,0,1,40.12,84c3.06-.21,3.14-.3,2.65-3.05a13.88,13.88,0,0,1,10-15.94,15,15,0,0,1,17.7,7.6c1.09,2.15,1.41,2.23,3.61,1A11.3,11.3,0,0,1,90.32,78.9a2.72,2.72,0,0,0,3.2,1.86c7.73-.6,14.73,4.88,15.5,12a14,14,0,0,1-12.58,15.57,28.64,28.64,0,0,1-3.71.21q-12.49,0-25,0H54a1.34,1.34,0,0,0-1.38,1.31h0A1.34,1.34,0,0,0,54,111.17q20.08,0,40.16,0c8.78,0,16.13-5.73,17.54-13.48C113.17,89.28,108.47,81.75,100,78.75Zm-90-40.86c-4.19-.1-7.24-4.24-7.12-8.4a8.39,8.39,0,0,1,8.15-8c2-.15,2.71-.72,2.28-2.7-1.16-5.4,2.85-10.66,8.9-11.25a10.49,10.49,0,0,1,9.92,5.07c1.33,2.24,1.41,2.2,4.09,1,3.73-1.67,8.33-.23,10,3.38A3,3,0,0,0,49.57,19c4.47-.2,8.21,2.49,9.82,6.89-.64-.09-1.16-.13-1.66-.25-7.35-1.8-14.7-3.57-22-5.46-1.84-.47-3.2-.29-4.43,1.17a41,41,0,0,1-3.08,2.95c-2.11,2-2.06,2.42.51,4l13.34,8.36c.48.3.94.63,1.88,1.26C32.22,38,21.07,38.17,9.93,37.89ZM73.42,70.82l-7.58-7.45,4.91-4.67,7.44,10.61Zm18.83,5.65c-1.88-3.53-5-5.61-9-6.75a4.94,4.94,0,0,1-2.5-1.67c-2.68-3.63-5.2-7.36-7.79-11-1.58-2.26-2-2.29-4.12-.32-1.76,1.66-3.47,3.38-5.3,5a2.69,2.69,0,0,1-2,.65,17.9,17.9,0,0,0-19.61,8,5.09,5.09,0,0,1-.63.73L30.14,65.21c1.57-2.32,3.29-3.79,6.34-2.79,1.22.4,2.65.2,3.88.58,3.6,1.11,6-.28,8.38-2.76,3.79-3.93,7.91-7.57,11.88-11.35,2.08-2,2-2.38-.4-3.91l-27-17c-.91-.57-1.8-1.16-3.35-2.15a23.86,23.86,0,0,1,3.64-2.66,4.74,4.74,0,0,1,2.84,0c11.53,2.75,23,5.59,34.56,8.34,7.71,1.83,5.62,2.16,11.09-2.91,4-3.74,7.89-7.61,12-11.27a10.23,10.23,0,0,1,4.27-2.25,5.06,5.06,0,0,1,5.46,2.26,4.82,4.82,0,0,1,.17,5.68,12.7,12.7,0,0,1-2.08,2.39c-4.63,4.42-9.23,8.88-14,13.19A4.66,4.66,0,0,0,86.29,44c3,10.89,5.93,21.82,8.87,32.74.09.32.14.65.22,1C93.83,78.28,93,77.87,92.25,76.47Z"/><path class="cls-3" d="M49.49,108.18h0l0,0a2,2,0,0,0-.35,0,2,2,0,0,0-.34,0l0,0h0a1.69,1.69,0,0,0-1.3,1.64,1.63,1.63,0,0,0,.11.55,1.76,1.76,0,0,0,.48.72,1.78,1.78,0,0,0,.65.35h0l.1,0a1.24,1.24,0,0,0,.33,0,1.42,1.42,0,0,0,.36,0l.11,0h0a1.68,1.68,0,0,0-.06-3.25Z"/></g></g></svg>