<svg xmlns="http://www.w3.org/2000/svg" viewBox="0 0 136.39 109.24"><defs><style>.cls-1{fill:#4cdaf2;}.cls-2{fill:none;}.cls-3{fill:#245377;}</style></defs><title>Entretenimento</title><g id="Camada_2" data-name="Camada 2"><g id="funcionalidades"><path class="cls-1" d="M136.17,64.3C134.62,50.43,121.1,37,107.22,35.46a34,34,0,0,0-3.63-.19H79.25V27.44H74.76L73,26.87h0a3.45,3.45,0,0,0-3-1.84H65.61a1.73,1.73,0,0,1,0-3.46H79.43a3.45,3.45,0,0,0,0-6.9H75.11a1.74,1.74,0,0,1-1.73-1.73V0H71.66V12.94a3.44,3.44,0,0,0,3.45,3.45h4.32a1.73,1.73,0,0,1,0,3.46H65.61a3.45,3.45,0,0,0,0,6.9h4.32a1.85,1.85,0,0,1,.62.12l-.27.57H65.79v7.83H38a31.6,31.6,0,0,0-3.64.21C20.49,37,7,50.44,5.43,64.31A32.78,32.78,0,0,0,55.25,95.93,27.62,27.62,0,0,1,67.64,91.6c1-.08,2.09-.12,3.16-.12s2,0,3,.11A27.49,27.49,0,0,1,86.36,96,32.79,32.79,0,0,0,136.17,64.3ZM50.61,71.68h-9a2.24,2.24,0,0,0-2.24,2.25v9H34.91v-9a2.24,2.24,0,0,0-2.24-2.25h-9V67.2h9A2.24,2.24,0,0,0,34.91,65V56H39.4v9a2.24,2.24,0,0,0,2.24,2.25h9ZM74.76,35.27H70.28V31.93h4.48Zm9,38.66a4.49,4.49,0,1,1,4.49-4.49A4.49,4.49,0,0,1,83.73,73.93Zm15.7,13.46a4.49,4.49,0,1,1,4.49-4.49A4.48,4.48,0,0,1,99.43,87.39Zm0-26.92A4.49,4.49,0,1,1,103.92,56,4.48,4.48,0,0,1,99.43,60.47Zm15.7,13.46a4.49,4.49,0,1,1,4.49-4.49A4.49,4.49,0,0,1,115.13,73.93Z"/><path class="cls-2" d="M108.51,75.19A4.8,4.8,0,1,0,113.3,80,4.79,4.79,0,0,0,108.51,75.19Z"/><rect class="cls-2" x="77.33" y="25.47" width="4.8" height="3.57"/><polygon class="cls-2" points="65.79 36.54 65.79 36.55 70.33 36.55 70.33 36.54 70.33 32.02 65.79 32.02 65.79 36.54"/><path class="cls-2" d="M115.7,77.39a4.54,4.54,0,1,0-4.54-4.54A4.54,4.54,0,0,0,115.7,77.39Z"/><path class="cls-2" d="M99.82,81.92a4.54,4.54,0,1,0,4.54,4.54A4.54,4.54,0,0,0,99.82,81.92Z"/><path class="cls-2" d="M34,77.39v9.07h4.53V77.39a2.27,2.27,0,0,1,2.27-2.27h9.07V70.58H40.84a2.27,2.27,0,0,1-2.27-2.27V59.24H34v9.07a2.27,2.27,0,0,1-2.27,2.27H22.69v4.54h9.08A2.27,2.27,0,0,1,34,77.39Z"/><path class="cls-2" d="M99.82,54.7a4.54,4.54,0,1,0,4.54,4.54A4.54,4.54,0,0,0,99.82,54.7Z"/><path class="cls-2" d="M83.94,68.31a4.54,4.54,0,1,0,4.54,4.54A4.54,4.54,0,0,0,83.94,68.31Z"/><path class="cls-3" d="M83.14,99.86A26.69,26.69,0,0,0,71,95.64c-1-.07-1.92-.11-2.9-.11s-2,0-3.06.13a26.69,26.69,0,0,0-12,4.18A31.75,31.75,0,0,1,4.75,69.22c1.49-13.43,14.59-26.48,28-27.93,1.1-.12,2.21-.18,3.33-.19h1.63a2.29,2.29,0,0,0,0-4.54H36c-1.23,0-2.46.09-3.69.22C16.65,38.46,2,53.08.24,68.72a36.3,36.3,0,0,0,55.17,35,22.18,22.18,0,0,1,10-3.52,35.79,35.79,0,0,1,5.28,0,22.34,22.34,0,0,1,10.11,3.56,36.31,36.31,0,0,0,11.87,4.69,2.28,2.28,0,0,0,2.67-1.79h0A2.26,2.26,0,0,0,93.51,104,31.71,31.71,0,0,1,83.14,99.86Z"/><path class="cls-3" d="M41.65,40.6a2.45,2.45,0,0,0,.93.49l.14.06a2.42,2.42,0,0,0,.47.05,2.63,2.63,0,0,0,.49-.05l.17-.06a2.35,2.35,0,0,0-.11-4.54l-.08,0a2.42,2.42,0,0,0-.47-.05,2.52,2.52,0,0,0-.48.05l-.07,0a2.36,2.36,0,0,0-1.81,2.29,2.39,2.39,0,0,0,.15.76A2.46,2.46,0,0,0,41.65,40.6Z"/><path class="cls-3" d="M31.2,87.49h7.32a1.83,1.83,0,0,0,1.83-1.83V78.34h7.32a1.83,1.83,0,0,0,1.83-1.83V69.19a1.83,1.83,0,0,0-1.83-1.83H40.35V60a1.83,1.83,0,0,0-1.83-1.83H31.2A1.83,1.83,0,0,0,29.37,60v7.32H22.05a1.83,1.83,0,0,0-1.83,1.83v7.32a1.83,1.83,0,0,0,1.83,1.83h7.32v7.32A1.83,1.83,0,0,0,31.2,87.49ZM22.82,75.54V70.1h8a2,2,0,0,0,2-2V60.8h4v7.29a2,2,0,0,0,2,2h8v5.6h-8a2,2,0,0,0-2,2v7.18h-4V77.54a2,2,0,0,0-2-2Z"/><path class="cls-3" d="M101,78.07a6.81,6.81,0,1,0,5.56,5.56A6.81,6.81,0,0,0,101,78.07Zm-1.15,11a4.28,4.28,0,1,1,4.28-4.28A4.27,4.27,0,0,1,99.82,89.06Z"/><path class="cls-3" d="M116.29,65.05a6.81,6.81,0,1,0,5.55,5.56A6.82,6.82,0,0,0,116.29,65.05Zm-1.16,11a4.28,4.28,0,1,1,4.29-4.28A4.28,4.28,0,0,1,115.13,76Z"/><path class="cls-3" d="M85.09,65.05a6.81,6.81,0,1,0,5.56,5.56A6.82,6.82,0,0,0,85.09,65.05ZM83.94,76a4.28,4.28,0,1,1,4.28-4.28A4.27,4.27,0,0,1,83.94,76Z"/><path class="cls-3" d="M100,104.6h0l-.07,0a2.61,2.61,0,0,0-.48,0,2.42,2.42,0,0,0-.47,0l-.08,0h0a2.36,2.36,0,0,0-1.8,2.29,2.39,2.39,0,0,0,.15.76,2.19,2.19,0,0,0,.67,1,2.32,2.32,0,0,0,.9.49h0l.15.05a1.76,1.76,0,0,0,.46.06,2,2,0,0,0,.49-.06l.16,0h0a2.35,2.35,0,0,0-.09-4.53Z"/><polygon class="cls-2" points="65.79 36.54 65.79 36.55 70.33 36.55 70.33 36.54 70.33 32.02 65.79 32.02 65.79 36.54"/><path class="cls-3" d="M135.89,68.71c-1.74-15.64-16.42-30.26-32.07-31.93-1.33-.14-2.66-.22-4-.23H74.87V27.48H70.33l-1.6-1h0a3.58,3.58,0,0,0-3.35-2.33H61a1.86,1.86,0,0,1-1.87-1.5,1.79,1.79,0,0,1,1.77-2.09H75a3.73,3.73,0,0,0,3.79-3.4,3.59,3.59,0,0,0-3.59-3.78H70.75A1.8,1.8,0,0,1,69,11.58V1.69h-1.8v9.89a3.59,3.59,0,0,0,3.59,3.59h4.4A1.85,1.85,0,0,1,77,16.67a1.79,1.79,0,0,1-1.77,2.09H61.08a3.72,3.72,0,0,0-3.78,3.4,3.58,3.58,0,0,0,3.58,3.78h4.49a1.81,1.81,0,0,1,1.28.54l-.86,1H61.26v9.06H49.18a2.3,2.3,0,0,0-.29,4.54H99.82a34.59,34.59,0,0,1,3.52.19c13.44,1.45,26.54,14.49,28,27.93a31.77,31.77,0,0,1-25.89,34.88,2.27,2.27,0,0,0-1.78,3h0a2.28,2.28,0,0,0,2.57,1.5,36.28,36.28,0,0,0,29.61-39.84ZM70.33,36.54H65.79V32h4.54Z"/><path class="cls-3" d="M99.88,50.12h0l-.07,0a2.38,2.38,0,0,0-1,0l-.07,0h0a2.39,2.39,0,0,0-1.83,2.32,2.51,2.51,0,0,0,.15.77,2.38,2.38,0,0,0,.68,1,2.43,2.43,0,0,0,.92.5h0s.09,0,.15,0a2.34,2.34,0,0,0,.47.05,2.63,2.63,0,0,0,.49-.05l.16,0h0a2.38,2.38,0,0,0-.09-4.59Z"/><path class="cls-2" d="M97,55.72l.22.27L97,55.72a4.53,4.53,0,1,0,5.1-.39l-.17.45.17-.45a4.42,4.42,0,0,0-5.1.39Z"/><path class="cls-2" d="M99.43,52.56a4.28,4.28,0,0,0-3.34,1.63l.42.62-.42-.62a4.29,4.29,0,1,0,6.49-.23l-.37.43.37-.43A4.29,4.29,0,0,0,99.43,52.56Z"/><path class="cls-3" d="M105.73,59.32a6.64,6.64,0,0,0-.46-6,1.27,1.27,0,0,0-2-.14h0a1.31,1.31,0,0,0-.09,1.52,4.28,4.28,0,1,1-8,2.14,4.23,4.23,0,0,1,.53-2,1.27,1.27,0,0,0-.05-1.33h0a1.28,1.28,0,0,0-2.19.14,6.78,6.78,0,0,0,8.34,9.56A6.93,6.93,0,0,0,105.73,59.32Z"/></g></g></svg>