<svg xmlns="http://www.w3.org/2000/svg" viewBox="0 0 161.68 82.73"><defs><style>.cls-1{fill:none;}.cls-2{fill:#fff;}</style></defs><title>Logo - Topo e Diferencial</title><g id="Camada_2" data-name="Camada 2"><g id="diferencial"><path class="cls-1" d="M87.28,40.94A23.19,23.19,0,0,0,85,43.32a20,20,0,0,1-2.41,2.48c-.65.52-1.15.66-1.51.38s-.58-.87-.44-1.79a15.66,15.66,0,0,1,.8-3,15.21,15.21,0,0,1,1.47-3,5.11,5.11,0,0,1,1.65-1.79c.47-.27,1.08-.17,1.85.3A3.48,3.48,0,0,1,88,38.71,2.19,2.19,0,0,1,87.28,40.94Z"/><path class="cls-2" d="M118.05,64.8a30,30,0,0,0,4.09-3.68,22.44,22.44,0,0,0,2.32-2.76l.23-.71a7.12,7.12,0,0,0,.09-3.29c-.21-1.3-.69-2-1.44-2.18s-2,.6-3.5,2.38A24,24,0,0,0,116,60.65c-1,2.28-1.21,3.9-.62,4.88C115.71,66.12,116.6,65.88,118.05,64.8Z"/><path class="cls-1" d="M87.28,40.94A23.19,23.19,0,0,0,85,43.32a20,20,0,0,1-2.41,2.48c-.65.52-1.15.66-1.51.38s-.58-.87-.44-1.79a15.66,15.66,0,0,1,.8-3,15.21,15.21,0,0,1,1.47-3,5.11,5.11,0,0,1,1.65-1.79c.47-.27,1.08-.17,1.85.3A3.48,3.48,0,0,1,88,38.71,2.19,2.19,0,0,1,87.28,40.94Z"/><path class="cls-1" d="M73.4,47.74a39,39,0,0,1-2.21,6.62,60.44,60.44,0,0,1-3.41,6.7,41.46,41.46,0,0,1-4.21,6A32.91,32.91,0,0,1,59,71.5a9,9,0,0,1-4.47,2.13,5.89,5.89,0,0,1-1.83-.08,4.6,4.6,0,0,1-.5-.13,5.9,5.9,0,0,1-1.64-.83,8.21,8.21,0,0,1-2.69-4.23,21.2,21.2,0,0,1-.07-9.3c-1.06,1.77-2.15,3.42-3.26,5a44.21,44.21,0,0,1-3.68,4.44A19.38,19.38,0,0,1,37,71.74a6.83,6.83,0,0,1-3.71,1.12A4.41,4.41,0,0,1,30,71.24c-1.6-1.92-2.08-4.81-1.41-8.68a50.46,50.46,0,0,1,3.8-12,61.5,61.5,0,0,1,6.09-10.82,16.2,16.2,0,0,0-10.27,5,6.24,6.24,0,0,0-1.91,4.45,2.64,2.64,0,0,1-2.77-.19,4,4,0,0,1-1.73-2.55,5.41,5.41,0,0,1,.44-3.51A9.52,9.52,0,0,1,27,39.13,27.35,27.35,0,0,1,34.11,37a37.44,37.44,0,0,1,7-.45,5.15,5.15,0,0,1,3.06,1.65,3.13,3.13,0,0,1,.65,3.24A30.54,30.54,0,0,0,41,47.74a64.49,64.49,0,0,0-4.32,10.18c-1.15,3.46-1.3,5.62-.48,6.44.59.58,1.59.32,3-.79a28.46,28.46,0,0,0,4.53-4.86c1.63-2.12,3.21-4.36,4.74-6.74,1.05-1.62,2-3.18,2.86-4.67.4-.68.78-1.35,1.14-2a44,44,0,0,1,2.26-4.17c.45-.74.9-1.44,1.35-2.07a21.73,21.73,0,0,1,1.51-1.88,5.16,5.16,0,0,1,2.88,1.47c1.17,1,1.68,2,1.52,2.94a19.88,19.88,0,0,0-2.67,4.17c-.08.18-.18.39-.25.52-.32.64-.61,1.33-.91,2-.5,1.16-1,2.34-1.4,3.6a63.46,63.46,0,0,0-1.82,6.44,20.86,20.86,0,0,0-.59,5.52c.08,1.6.51,2.61,1.29,3a1.79,1.79,0,0,0,1.43-.1,5.76,5.76,0,0,0,1.87-1.46,26.77,26.77,0,0,0,4-6.12,69,69,0,0,0,3.4-8.44,30.88,30.88,0,0,0,1.68-8.53,11.74,11.74,0,0,0-1.27-6.36,4.32,4.32,0,0,1,2.74.09,7,7,0,0,1,3,2.09,6.62,6.62,0,0,1,1.59,4A18.2,18.2,0,0,1,73.4,47.74Z"/><path class="cls-2" d="M141.55,27.14a26.45,26.45,0,0,0-3.77-.87l-.17,0a2.25,2.25,0,0,0-.12-.4,30,30,0,0,0-40.82-8.6,10.94,10.94,0,0,0-1.45,1.19l-.09-.14C88.8,7.72,76.18,0,62,0,43,0,27.36,12.86,25,29.49a26.31,26.31,0,0,0-10,2.66A26.64,26.64,0,0,0,26.65,82.73H131c.29,0,.64,0,1,0,1.63-.09,3.72-.33,3.72-.33a35,35,0,0,0,19-9.4,28.4,28.4,0,0,0-13.15-45.82ZM80.66,44.39a15.66,15.66,0,0,1,.8-3,15.21,15.21,0,0,1,1.47-3,5.11,5.11,0,0,1,1.65-1.79c.47-.27,1.08-.17,1.85.3A3.48,3.48,0,0,1,88,38.71a2.19,2.19,0,0,1-.68,2.23A23.19,23.19,0,0,0,85,43.32a20,20,0,0,1-2.41,2.48c-.65.52-1.15.66-1.51.38S80.52,45.31,80.66,44.39ZM63.57,67A32.91,32.91,0,0,1,59,71.5a9,9,0,0,1-4.47,2.13,5.89,5.89,0,0,1-1.83-.08,4.6,4.6,0,0,1-.5-.13,5.9,5.9,0,0,1-1.64-.83,8.21,8.21,0,0,1-2.69-4.23,21.2,21.2,0,0,1-.07-9.3c-1.06,1.77-2.15,3.42-3.26,5a44.21,44.21,0,0,1-3.68,4.44A19.38,19.38,0,0,1,37,71.74a6.83,6.83,0,0,1-3.71,1.12A4.41,4.41,0,0,1,30,71.24c-1.6-1.92-2.08-4.81-1.41-8.68a50.46,50.46,0,0,1,3.8-12,61.5,61.5,0,0,1,6.09-10.82,16.2,16.2,0,0,0-10.27,5,6.24,6.24,0,0,0-1.91,4.45,2.64,2.64,0,0,1-2.77-.19,4,4,0,0,1-1.73-2.55,5.41,5.41,0,0,1,.44-3.51A9.52,9.52,0,0,1,27,39.13,27.35,27.35,0,0,1,34.11,37a37.44,37.44,0,0,1,7-.45,5.15,5.15,0,0,1,3.06,1.65,3.13,3.13,0,0,1,.65,3.24A30.54,30.54,0,0,0,41,47.74a64.49,64.49,0,0,0-4.32,10.18c-1.15,3.46-1.3,5.62-.48,6.44.59.58,1.59.32,3-.79a28.46,28.46,0,0,0,4.53-4.86c1.63-2.12,3.21-4.36,4.74-6.74,1.05-1.62,2-3.18,2.86-4.67.4-.68.78-1.35,1.14-2a44,44,0,0,1,2.26-4.17c.45-.74.9-1.44,1.35-2.07a21.73,21.73,0,0,1,1.51-1.88,5.16,5.16,0,0,1,2.88,1.47c1.17,1,1.68,2,1.52,2.94a19.88,19.88,0,0,0-2.67,4.17c-.08.18-.18.39-.25.52-.32.64-.61,1.33-.91,2-.5,1.16-1,2.34-1.4,3.6a63.46,63.46,0,0,0-1.82,6.44,20.86,20.86,0,0,0-.59,5.52c.08,1.6.51,2.61,1.29,3a1.79,1.79,0,0,0,1.43-.1,5.76,5.76,0,0,0,1.87-1.46,26.77,26.77,0,0,0,4-6.12,69,69,0,0,0,3.4-8.44,30.88,30.88,0,0,0,1.68-8.53,11.74,11.74,0,0,0-1.27-6.36,4.32,4.32,0,0,1,2.74.09,7,7,0,0,1,3,2.09,6.62,6.62,0,0,1,1.59,4,18.2,18.2,0,0,1-.53,5.68,39,39,0,0,1-2.21,6.62,60.44,60.44,0,0,1-3.41,6.7A41.46,41.46,0,0,1,63.57,67Zm75.33-5.7a13,13,0,0,1-1.15,2.88c-.49.91-1.05,1.85-1.68,2.81l-.26.4a15.59,15.59,0,0,1-2.52,2.88,12.93,12.93,0,0,1-2.83,1.91,4.19,4.19,0,0,1-4.46-.49,5.75,5.75,0,0,1-1.13-1.13q-2-2.64-1.41-7.65c-.75,1.07-1.47,2-2.18,2.89s-1.53,1.82-2.5,2.85A16.36,16.36,0,0,1,116.22,71c-.06,0-.11.09-.18.12a9.92,9.92,0,0,1-2.17,1.15c-.14.06-.28.14-.41.18a2.55,2.55,0,0,1-2.35-.26,3.3,3.3,0,0,1-.71-.69,6.33,6.33,0,0,1-1-1.84,13.74,13.74,0,0,1-.59-2.82A27,27,0,0,1,106.93,69c-.3.31-.58.59-.88.87a13.56,13.56,0,0,1-2.5,1.84,8.68,8.68,0,0,1-3.39,1.12,3.33,3.33,0,0,1-2.88-1.21,7,7,0,0,1-1.7-3.79,12.42,12.42,0,0,1,.14-4.59c.07-.32.15-.62.23-.94.29-1.18.6-2.32,1-3.41a20.59,20.59,0,0,1,1.33-3.33l.65-1.29c-1.44.91-3,2.8-4.8,5.65-.22.37-.44.73-.66,1.11a95.46,95.46,0,0,0-5.61,11.59,1.87,1.87,0,0,1-1.39.38,3.59,3.59,0,0,1-2.17-1.14,5.09,5.09,0,0,1-1.55-2.77,8.08,8.08,0,0,1,.06-2.57,31.8,31.8,0,0,1-2.22,2.78,10.87,10.87,0,0,1-3.93,3,4.44,4.44,0,0,1-4-.24,4.84,4.84,0,0,1-1.93-3.82,14.22,14.22,0,0,1,.7-5.62,54.62,54.62,0,0,1,2.32-6,52.12,52.12,0,0,1,2.65-5.18,19.79,19.79,0,0,1,2-2.88,3.68,3.68,0,0,1,2.47,1,2.75,2.75,0,0,1,.71,3.13,28.49,28.49,0,0,0-3.33,7.26c-1.23,3.55-1.52,5.65-.85,6.32s2.11-.21,4.47-2.62c.86-.88,1.6-1.68,2.23-2.4q.33-1.11.75-2.37,2.55-7.73,4.19-10.2a.83.83,0,0,1,.18-.13,1.37,1.37,0,0,1,.8,0,11.2,11.2,0,0,1,1.53.44A3.41,3.41,0,0,1,92.93,50a3.11,3.11,0,0,1,.7,1.86A43.36,43.36,0,0,0,91.73,56c-.15.4-.32.78-.48,1.21a62.48,62.48,0,0,0-2.09,6.3,39.86,39.86,0,0,1,3.47-5.84q.84-1.23,1.86-2.67,4.32-6.09,6-6.73c.9-.39,2.08-.08,3.51.92s2,2,1.61,2.9a14.17,14.17,0,0,0-.58,1.33c-.36.84-.66,1.58-.91,2.23s-.58,1.51-1,2.59-.7,2-.93,2.85-.45,1.67-.63,2.54a7.58,7.58,0,0,0-.18,2.17,2,2,0,0,0,.57,1.29,1.8,1.8,0,0,0,1.85.17,8.06,8.06,0,0,0,2.3-1.4,21.33,21.33,0,0,0,2.35-2.32c.17-.2.32-.39.49-.57a16.57,16.57,0,0,1,2-5.41.35.35,0,0,1,.06-.09,26.56,26.56,0,0,1,3.61-5,14.07,14.07,0,0,1,4.33-3.3,5.36,5.36,0,0,1,3.94-.56,5.66,5.66,0,0,1,3.65,4.18A74.23,74.23,0,0,1,131,44.09a31.9,31.9,0,0,1,4-5.56,5.18,5.18,0,0,1,2.53,1.39,3.06,3.06,0,0,1,1.18,3.21,27.28,27.28,0,0,0-3.83,5.67,57.88,57.88,0,0,0-4.23,9.59c-1.17,3.46-1.45,6-.82,7.5.55,1.37,2,1,4.24-1a23.5,23.5,0,0,0,4.76-5.5A2.84,2.84,0,0,1,138.9,61.33Z"/><path class="cls-2" d="M96.67,17.23a10.94,10.94,0,0,0-1.45,1.19l-.09-.14C95.63,17.91,96.15,17.56,96.67,17.23Z"/><path class="cls-2" d="M137.78,26.27l-.17,0a2.25,2.25,0,0,0-.12-.4C137.59,26,137.68,26.12,137.78,26.27Z"/></g></g></svg>