<svg xmlns="http://www.w3.org/2000/svg" viewBox="0 0 110.76 110.84"><defs><style>.cls-1{fill:#4cdaf2;stroke:#4cdaf2;stroke-miterlimit:10;stroke-width:3px;}.cls-2{fill:#245377;}</style></defs><title>Tarifa</title><g id="Camada_2" data-name="Camada 2"><g id="funcionalidades"><path class="cls-1" d="M71.55,2.11,14.87,58.8a2.09,2.09,0,0,0,0,3l8,8A10.47,10.47,0,0,1,37.37,84.26l8,8a2.09,2.09,0,0,0,3,0L105,35.56a2.11,2.11,0,0,0,0-3l-8-8a10.46,10.46,0,0,1-14.5-14.5l-8-8A2.11,2.11,0,0,0,71.55,2.11Z"/><path class="cls-1" d="M107.17,54.32H12.55a2.1,2.1,0,0,0-2.09,2.1v11.3a10.47,10.47,0,0,1,0,20.51V99.54a2.1,2.1,0,0,0,2.09,2.09h94.62a2.1,2.1,0,0,0,2.09-2.09V88.23a10.47,10.47,0,0,1,0-20.51V56.42A2.1,2.1,0,0,0,107.17,54.32Z"/><path class="cls-2" d="M100.9,55.16h-7L104.85,44.5a6.28,6.28,0,0,0,0-8.88L96,26.67a2.11,2.11,0,0,0-3,0,6.28,6.28,0,1,1-8.88-8.88,2.1,2.1,0,0,0,0-3L74.85,5.51a6.28,6.28,0,0,0-8.88,0L31.39,40.08c-.82.82-1.18,1.74-.36,2.56a1.84,1.84,0,0,0,2.74-.19l35-35a2.09,2.09,0,0,1,1.48-.61A4.47,4.47,0,0,1,72.35,8l8,8a9.54,9.54,0,0,0-1.65,5.53,10.47,10.47,0,0,0,16.24,8.74l8,8a2.09,2.09,0,0,1,0,3L89.13,55.16H80l6.88-6.88a2.11,2.11,0,0,0,0-3L65.52,24a2.09,2.09,0,0,0-3,0L31.41,55.16H6.28A6.29,6.29,0,0,0,0,61.44V74.63a2.1,2.1,0,0,0,2.09,2.09,6.28,6.28,0,1,1,0,12.56A2.1,2.1,0,0,0,0,91.37v13.19a6.29,6.29,0,0,0,6.28,6.28H100.9a6.29,6.29,0,0,0,6.28-6.28V91.37a2.1,2.1,0,0,0-2.1-2.09,6.28,6.28,0,1,1,0-12.56,2.1,2.1,0,0,0,2.1-2.09V61.44A6.29,6.29,0,0,0,100.9,55.16ZM63.47,27.87,82.84,47.25l-7.69,7.91H64.59l6.78-6.72c.82-.81,1.16-1.95.34-2.77s-2-.43-2.78.39l-9.1,9.1H36.09Zm41,44.56a10.79,10.79,0,0,0,0,21.14v11.65c0,1.19-1,2.77-2.15,2.77H4.84c-1.19,0-2.16-1.58-2.16-2.77V93.57A10.8,10.8,0,0,0,11.31,83,10.81,10.81,0,0,0,2.68,72.43V60.79c0-1.19,1-2.84,2.16-2.84h97.5c1.18,0,2.15,1.65,2.15,2.84Z"/><path class="cls-2" d="M32.4,79.14a1.6,1.6,0,0,0,1.15-.48,1.63,1.63,0,1,0-2.3,0A1.6,1.6,0,0,0,32.4,79.14Z"/><path class="cls-2" d="M37.7,79.14a1.63,1.63,0,0,0,1.15-2.78,1.68,1.68,0,0,0-1.15-.48,1.64,1.64,0,0,0-1.15.48,1.63,1.63,0,0,0,1.15,2.78Z"/><path class="cls-2" d="M43,79.14a1.63,1.63,0,0,0,1.15-2.78A1.64,1.64,0,0,0,43,75.88a1.68,1.68,0,0,0-1.15.48A1.63,1.63,0,0,0,43,79.14Z"/><path class="cls-2" d="M48.29,79.14a1.6,1.6,0,0,0,1.15-.48,1.63,1.63,0,1,0-2.3,0A1.6,1.6,0,0,0,48.29,79.14Z"/><path class="cls-2" d="M58.89,79.14A1.63,1.63,0,0,0,60,76.36a1.68,1.68,0,0,0-1.15-.48,1.64,1.64,0,0,0-1.15.48,1.63,1.63,0,0,0,1.15,2.78Z"/><path class="cls-2" d="M64.18,79.14a1.63,1.63,0,0,0,1.15-2.78,1.63,1.63,0,0,0-2.3,2.3A1.6,1.6,0,0,0,64.18,79.14Z"/><path class="cls-2" d="M69.48,79.14a1.6,1.6,0,0,0,1.15-.48,1.63,1.63,0,1,0-2.3,0A1.6,1.6,0,0,0,69.48,79.14Z"/><path class="cls-2" d="M74.78,79.14a1.6,1.6,0,0,0,1.15-.48,1.63,1.63,0,1,0-2.3-2.3,1.63,1.63,0,0,0,1.15,2.78Z"/><path class="cls-2" d="M53.59,79.14a1.6,1.6,0,0,0,1.15-.48,1.63,1.63,0,1,0-2.3,0A1.6,1.6,0,0,0,53.59,79.14Z"/><path class="cls-2" d="M32.87,89.28H74.31a1.59,1.59,0,1,0,0-3.13H32.87a1.59,1.59,0,1,0,0,3.13Z"/><path class="cls-2" d="M39.93,96.87a1.65,1.65,0,0,0,0,3.3,1.65,1.65,0,0,0,0-3.3Z"/><path class="cls-2" d="M85.41,65.84H21.77a2.08,2.08,0,0,0-2.09,2.09V98.07a2.09,2.09,0,0,0,2.09,2.1h8.72c1.16,0,2.06-.6,2.06-1.76s-.9-1.54-2.06-1.54H23V69.11H84V96.87H49.33c-1.16,0-2,.47-2,1.63s.88,1.67,2,1.67H85.41a2.1,2.1,0,0,0,2.09-2.1V67.93A2.09,2.09,0,0,0,85.41,65.84Z"/><path class="cls-2" d="M51.55,52.66a1.63,1.63,0,0,0,1.15-2.78,1.68,1.68,0,0,0-1.15-.48,1.64,1.64,0,0,0-1.15.48,1.63,1.63,0,0,0,1.15,2.78Z"/><path class="cls-2" d="M55.75,48.46A1.64,1.64,0,1,0,54.6,48,1.64,1.64,0,0,0,55.75,48.46Z"/><path class="cls-2" d="M22.39,53.13a1.63,1.63,0,1,0,0-3.25,1.63,1.63,0,1,0,0,3.25Z"/><path class="cls-2" d="M26.59,48.93a1.6,1.6,0,0,0,1.15-.48,1.64,1.64,0,0,0,.48-1.15,1.66,1.66,0,0,0-.48-1.15,1.64,1.64,0,0,0-2.3,0A1.66,1.66,0,0,0,25,47.3a1.64,1.64,0,0,0,.48,1.15A1.6,1.6,0,0,0,26.59,48.93Z"/><path class="cls-2" d="M60.39,43.82A1.63,1.63,0,0,0,61.54,41a1.68,1.68,0,0,0-1.15-.48,1.64,1.64,0,0,0-1.15.48,1.63,1.63,0,0,0,1.15,2.78Z"/></g></g></svg>