<svg xmlns="http://www.w3.org/2000/svg" viewBox="0 0 178.43 105.41"><defs><style>.cls-1{fill:#4cdaf2;}.cls-2{fill:#245377;}.cls-3,.cls-4{fill:none;stroke:#245377;stroke-linecap:round;stroke-linejoin:round;}.cls-3{stroke-width:2.4px;}.cls-4{stroke-width:4.2px;}</style></defs><title>Timeline</title><g id="Camada_2" data-name="Camada 2"><g id="funcionalidades"><path class="cls-1" d="M125.47,96.38H92.24a2.85,2.85,0,0,0-.29,0h-46c-.11,0-.21,0-.32,0l-.07,0H32.67a7.77,7.77,0,0,1-7.14-4.76A9.22,9.22,0,0,1,27.35,83a7.72,7.72,0,0,1,4.81-2.1,6,6,0,0,1,.62-.06h76v0h0A13.93,13.93,0,0,0,109.05,53l-.22,0H24.22a3.1,3.1,0,0,0,0,6.2H108.8A7.77,7.77,0,0,1,115.94,64a9.21,9.21,0,0,1-1.82,8.59,7.71,7.71,0,0,1-5.21,2.12l-.22,0H32.78a3.18,3.18,0,0,0-.62.06,13.92,13.92,0,0,0,.43,27.84H92.12a1.08,1.08,0,0,1,.19,0h33.24a3.09,3.09,0,0,0-.08-6.18Z"/><path class="cls-2" d="M58.22,62.55a3.17,3.17,0,0,0,2,.74,2.9,2.9,0,1,0-3.09-2.89,2.62,2.62,0,0,0,.2.93A2.86,2.86,0,0,0,58.22,62.55Z"/><path class="cls-2" d="M17.47,63.31H51.61a2.9,2.9,0,1,0,0-5.8H17.47a2.91,2.91,0,1,0,0,5.8Z"/><path class="cls-2" d="M77.45,98.15a3.21,3.21,0,0,0-.63-.06,3.39,3.39,0,0,0-.64.06,3,3,0,0,0-2.53,2.9,2.85,2.85,0,0,0,.21,1,2.91,2.91,0,0,0,.89,1.25,3.39,3.39,0,0,0,1.44.69,3.29,3.29,0,0,0,.63.07,3.5,3.5,0,0,0,.65-.07,2.93,2.93,0,0,0,0-5.8Z"/><path class="cls-2" d="M118.57,98.15H85.05a2.9,2.9,0,1,0,.07,5.8h33.53a2.9,2.9,0,1,0-.08-5.8Z"/><path class="cls-2" d="M68.82,77.83l-.22,0-.23,0a3,3,0,0,0-2.86,2.87,2.62,2.62,0,0,0,.2.93,2.8,2.8,0,0,0,.87,1.22,3.17,3.17,0,0,0,2,.74,2.88,2.88,0,1,0,.22-5.76Z"/><path class="cls-2" d="M68.44,98.15c-.1,0-.2,0-.3,0h-29c-.11,0-.21,0-.32,0H25.92a7.78,7.78,0,0,1-7.14-4.46,8.25,8.25,0,0,1,1.82-8.06,8,8,0,0,1,4.81-2A5.68,5.68,0,0,1,26,83.6H60.17a3,3,0,0,0,3-2.9,3,3,0,0,0-2.79-2.87,2.4,2.4,0,0,0-.28,0H26a3.18,3.18,0,0,0-.62.06c-7.45.25-13.42,6-13.42,13s6.2,13,13.85,13.06h1.54L37,104h31.3a1.08,1.08,0,0,0,.19,0,3,3,0,0,0,2.63-2.26,2.57,2.57,0,0,0,.08-.62h0A3,3,0,0,0,68.44,98.15Z"/><path class="cls-2" d="M109.19,67.78a8.26,8.26,0,0,1-1.82,8,8,8,0,0,1-5.21,2l-.22,0H77a1.6,1.6,0,0,0-.23,0A3,3,0,0,0,74,80.7h0a3,3,0,0,0,3.09,2.92H102c7.69,0,13.94-5.86,13.94-13.06s-6.12-12.92-13.69-13l-.22,0H68.47a2.59,2.59,0,0,0-.63.08,2.94,2.94,0,0,0-2.41,2.83,3,3,0,0,0,3.09,2.9H102A7.79,7.79,0,0,1,109.19,67.78Z"/><path class="cls-1" d="M38.34,5.71a19.48,19.48,0,0,0-27.56,0C3.91,12.57,3.07,25.49,9,33.36L24.56,55.88,40.13,33.4C46.05,25.49,45.21,12.57,38.34,5.71ZM24.56,26.32a5.09,5.09,0,1,1,5.08-5.08A5.08,5.08,0,0,1,24.56,26.32Z"/><path class="cls-3" d="M2.9,30.62a1,1,0,0,0,.76-1.16c-1.23-6.4.48-13.55,4.92-18a18,18,0,0,1,25.51,0c6.36,6.36,7.15,18.32,1.66,25.63L21.34,57.92l-12-17.07a1,1,0,0,0-1.42-.29h0A1,1,0,0,0,7.61,42L21.34,61.61,37.45,38.33c6-8.06,5.17-21.3-1.87-28.34A20.15,20.15,0,0,0,7.1,10C2.18,14.9.28,22.82,1.62,29.89a1,1,0,0,0,1.15.76Z"/><path class="cls-2" d="M3,38.05a3,3,0,0,0,2,.79,3.22,3.22,0,1,0-2.88-2.09A3,3,0,0,0,3,38.05Z"/><path class="cls-1" d="M167.72,29.52a1.47,1.47,0,0,1,0-1.41L178.25,10a1.52,1.52,0,0,0-1.34-2.23H127.54A1.52,1.52,0,0,0,126,9.33V52a1.52,1.52,0,0,0,1.52,1.52h.26v29a9.28,9.28,0,0,0-5.72,8.3,9.39,9.39,0,0,0,9,9.56,9.28,9.28,0,0,0,4.31-17.64V53.47h41.51a1.52,1.52,0,0,0,1.34-2.23ZM152.58,41.9h-14a.84.84,0,0,1-.84-.84V22.62a1,1,0,0,1,1-1h14.11a.56.56,0,0,1,.45.9l-5.12,6.7a1.3,1.3,0,0,0-.11,1.39l5.25,10A.85.85,0,0,1,152.58,41.9Z"/><path class="cls-4" d="M124.32,38.59V56.36a1.41,1.41,0,0,0,1.42,1.42H126V86.6a8.7,8.7,0,0,0,4.22,16.67"/><circle class="cls-2" cx="135.96" cy="100.37" r="2.52"/><path class="cls-4" d="M138,93.61a8.7,8.7,0,0,0-4.86-6.81v-29h14.5"/><path class="cls-4" d="M163.13,57.78h8.79a1.42,1.42,0,0,0,1.26-2.08L163.32,37a1.42,1.42,0,0,1,0-1.33l7.78-14.66"/><circle class="cls-2" cx="155.36" cy="57.8" r="2.44"/><circle class="cls-2" cx="174.32" cy="14.96" r="2.44"/><path class="cls-4" d="M168.24,15h-42.5a1.42,1.42,0,0,0-1.42,1.42v9.67"/><circle class="cls-2" cx="124.32" cy="32.32" r="2.44"/></g></g></svg>